<svg xmlns="http://www.w3.org/2000/svg" width="40" height="40" fill="none">
    <path fill="#E2761B" stroke="#E2761B" stroke-linecap="round" stroke-linejoin="round"
        stroke-width="0.694" d="m31.654 8-10.101 7.502 1.868-4.426L31.654 8Z"></path>
    <path fill="#E4761B" stroke="#E4761B" stroke-linecap="round" stroke-linejoin="round"
        stroke-width="0.694"
        d="m8.335 7.994 10.02 7.574-1.776-4.498-8.244-3.076ZM28.02 25.384l-2.69 4.122 5.756 1.583 1.655-5.614-4.72-.091ZM7.269 25.475l1.645 5.614 5.756-1.583-2.69-4.122-4.711.091Z"></path>
    <path fill="#E4761B" stroke="#E4761B" stroke-linecap="round" stroke-linejoin="round"
        stroke-width="0.694"
        d="m14.345 18.419-1.604 2.426 5.715.254-.203-6.142-3.908 3.462ZM25.645 18.419l-3.96-3.533-.131 6.213 5.705-.254-1.614-2.426ZM14.67 29.506 18.1 27.83l-2.964-2.314-.467 3.99ZM21.888 27.83l3.442 1.676-.477-3.99-2.965 2.314Z"></path>
    <path fill="#D7C1B3" stroke="#D7C1B3" stroke-linecap="round" stroke-linejoin="round"
        stroke-width="0.694"
        d="m25.33 29.512-3.441-1.675.274 2.244-.03.944 3.197-1.513ZM14.67 29.512l3.198 1.513-.02-.944.253-2.244-3.431 1.675Z"></path>
    <path fill="#233447" stroke="#233447" stroke-linecap="round" stroke-linejoin="round"
        stroke-width="0.694"
        d="m17.919 24.039-2.863-.843 2.02-.924.843 1.767ZM22.07 24.039l.843-1.767 2.03.924-2.872.843Z"></path>
    <path fill="#CD6116" stroke="#CD6116" stroke-linecap="round" stroke-linejoin="round"
        stroke-width="0.694"
        d="m14.67 29.512.487-4.121-3.178.091 2.69 4.03ZM24.842 25.39l.487 4.122 2.69-4.03-3.177-.091ZM27.258 20.852l-5.705.253.528 2.934.842-1.766 2.03.924 2.305-2.345ZM15.056 23.197l2.03-.924.833 1.766.538-2.934-5.716-.253 2.315 2.345Z"></path>
    <path fill="#E4751F" stroke="#E4751F" stroke-linecap="round" stroke-linejoin="round"
        stroke-width="0.694"
        d="m12.74 20.852 2.396 4.67-.081-2.325-2.315-2.345ZM24.954 23.197l-.102 2.325 2.406-4.67-2.304 2.345ZM18.456 21.108l-.538 2.934.67 3.462.152-4.558-.284-1.838ZM21.552 21.108l-.274 1.828.122 4.568.68-3.462-.528-2.934Z"></path>
    <path fill="#F6851B" stroke="#F6851B" stroke-linecap="round" stroke-linejoin="round"
        stroke-width="0.694"
        d="m22.081 24.04-.68 3.462.487.335 2.965-2.315.101-2.325-2.873.843ZM15.056 23.197l.08 2.325 2.965 2.315.488-.335-.67-3.462-2.863-.843Z"></path>
    <path fill="#C0AD9E" stroke="#C0AD9E" stroke-linecap="round" stroke-linejoin="round"
        stroke-width="0.694"
        d="m22.132 31.021.03-.944-.253-.223H18.08l-.233.223.02.944-3.198-1.512 1.117.913 2.264 1.574h3.888l2.274-1.573 1.117-.914-3.198 1.512Z"></path>
    <path fill="#161616" stroke="#161616" stroke-linecap="round" stroke-linejoin="round"
        stroke-width="0.694"
        d="m21.888 27.835-.487-.335h-2.812l-.487.335-.254 2.244.233-.224h3.828l.253.224-.274-2.244Z"></path>
    <path fill="#763D16" stroke="#763D16" stroke-linecap="round" stroke-linejoin="round"
        stroke-width="0.694"
        d="m32.082 15.984.862-4.142-1.289-3.848-9.766 7.249 3.756 3.178 5.31 1.553 1.177-1.37-.507-.366.812-.741-.63-.488.813-.619-.538-.406ZM7.056 11.842l.863 4.142-.548.406.812.62-.62.487.813.74-.508.366 1.168 1.37 5.31-1.552 3.756-3.178-9.767-7.249-1.279 3.848Z"></path>
    <path fill="#F6851B" stroke="#F6851B" stroke-linecap="round" stroke-linejoin="round"
        stroke-width="0.694"
        d="m30.954 19.978-5.31-1.553 1.614 2.426-2.406 4.67 3.168-.04h4.72l-1.786-5.503ZM14.345 18.425l-5.31 1.553-1.766 5.503h4.71l3.158.04-2.396-4.67 1.604-2.426ZM21.553 21.104l.335-5.858 1.543-4.173h-6.853l1.523 4.173.355 5.858.122 1.847.01 4.549h2.813l.02-4.549.132-1.847Z"></path>
</svg>